# xmcd CD database file
#
# Track frame offsets:
#	150
#	15598
#	32966
#	45736
#	64568
#	81429
#	100709
#	105199
#	124686
#	140186
#	161493
#	177118
#
# Disc length: 2451 seconds
#
# Revision: 1
# Processed by: cddbd v1.5.2PL0 Copyright (c) Steve Scherf et al.
# Submitted via: CDex 1.70beta2
#
DISCID=9509910c
DTITLE=Hemisfair - Blue Blue Grass Of Home
DYEAR=2007
DGENRE=Bluegrass
TTITLE0=Helluva Heartache
TTITLE1=Fare Thee Well
TTITLE2=Chicken Run
TTITLE3=Poetic Justice
TTITLE4=Dixieland
TTITLE5=Down The Old Millstream
TTITLE6=Blue Skies
TTITLE7=Psycho
TTITLE8=Green Light
TTITLE9=Wilma's Blues
TTITLE10=Please Don`T Ask Me To Dance
TTITLE11=My Sweet Tinkerbell
EXTD=YEAR: 2007
EXTT0=
EXTT1=
EXTT2=
EXTT3=
EXTT4=
EXTT5=
EXTT6=
EXTT7=
EXTT8=
EXTT9=
EXTT10=
EXTT11=
PLAYORDER=
